<?xml version="1.0" encoding="utf-8"?>
<!-- Generator: Adobe Illustrator 16.0.4, SVG Export Plug-In . SVG Version: 6.00 Build 0)  -->
<!DOCTYPE svg PUBLIC "-//W3C//DTD SVG 1.1//EN" "http://www.w3.org/Graphics/SVG/1.1/DTD/svg11.dtd">
<svg version="1.1" id="Ebene_1" xmlns="http://www.w3.org/2000/svg" xmlns:xlink="http://www.w3.org/1999/xlink" x="0px" y="0px"
	 width="75.75px" height="31.625px" viewBox="0 0 75.75 31.625" enable-background="new 0 0 75.75 31.625" xml:space="preserve">
<g>
	<path fill="#312B6B" d="M1.125,30.107L5,2.531h9.24c6.986,0,8.823,3.677,8.192,8.163c-0.242,1.729-0.953,3.383-2.336,4.853
		c1.264,1.471,1.889,3.824,1.584,5.994c-0.671,4.781-3.778,8.566-11.168,8.566H1.125z M9.032,19.031l-0.695,4.945h3.119
		c2.65,0,3.388-1.236,3.557-2.438c0.243-1.73-0.53-2.508-2.791-2.508H9.032z M10.494,8.625l-0.587,4.174l-0.039,0.283h2.856
		c2.504,0,3.202-1.168,3.361-2.303c0.23-1.636-0.501-2.369-2.637-2.369h-2.923L10.494,8.625z"/>
	<polygon fill="#4665A7" points="65.9,2.539 74.771,2.539 63.036,15.77 69.642,30.117 61.131,30.117 54.424,15.533 	"/>
	<polygon fill="#312B6B" points="43.794,2.539 46.545,17.609 51.308,2.539 58.525,2.539 49.812,30.117 42.182,30.117 39.204,13.737 
		33.121,30.117 25.254,30.117 21.739,2.539 28.828,2.539 30.746,17.59 36.336,2.539 	"/>
</g>
</svg>
